<svg width="33" height="30" viewBox="0 0 33 30" fill="none" xmlns="http://www.w3.org/2000/svg">
<path d="M21.3978 25.2995C21.45 25.3082 21.5018 25.3124 21.553 25.3124C22.003 25.3124 22.4002 24.9874 22.4767 24.5289L23.4142 18.9039C23.4993 18.3932 23.1543 17.9101 22.6435 17.825C22.1328 17.7396 21.6498 18.0849 21.5647 18.5956L20.6272 24.2206C20.542 24.7314 20.887 25.2144 21.3978 25.2995Z" fill="#FE83C6"/>
<path d="M10.2522 24.5293C10.3286 24.9878 10.7257 25.3128 11.1758 25.3128C11.227 25.3128 11.2789 25.3086 11.331 25.2999C11.8418 25.2148 12.1868 24.7318 12.1017 24.221L11.1642 18.596C11.079 18.0853 10.5961 17.7403 10.0853 17.8254C9.57454 17.9105 9.22954 18.3935 9.31466 18.9043L10.2522 24.5293Z" fill="#FE83C6"/>
<path d="M31.3955 10.3125H28.0961L20.8776 1.28936C20.5542 0.885177 19.9643 0.819489 19.5599 1.14299C19.1556 1.46643 19.09 2.05636 19.4135 2.46068L25.6949 10.3125H6.97107L13.2526 2.46068C13.576 2.05636 13.5104 1.46636 13.1062 1.14299C12.7018 0.819489 12.1119 0.885114 11.7885 1.28936L4.56995 10.3125H1.27051C0.752758 10.3125 0.333008 10.7322 0.333008 11.25V15C0.333008 15.5177 0.752758 15.9375 1.27051 15.9375H2.43838L5.99413 28.3825C6.10907 28.785 6.47695 29.0625 6.89551 29.0625H25.7705C26.1891 29.0625 26.5569 28.785 26.6719 28.3825L30.2276 15.9375H31.3955C31.9133 15.9375 32.333 15.5177 32.333 15V11.25C32.333 10.7322 31.9133 10.3125 31.3955 10.3125ZM25.0634 27.1875H7.60263L4.38838 15.9375H28.2777L25.0634 27.1875ZM30.458 14.0625C27.2464 14.0625 5.25051 14.0625 2.20801 14.0625V12.1875H30.458V14.0625Z" fill="#FE83C6"/>
<path d="M16.333 25.3125C16.8508 25.3125 17.2705 24.8927 17.2705 24.375V18.75C17.2705 18.2322 16.8508 17.8125 16.333 17.8125C15.8153 17.8125 15.3955 18.2322 15.3955 18.75V24.375C15.3955 24.8928 15.8153 25.3125 16.333 25.3125Z" fill="#FE83C6"/>
</svg>
