<svg width="44" height="45" viewBox="0 0 44 45" fill="none" xmlns="http://www.w3.org/2000/svg">
<path fill-rule="evenodd" clip-rule="evenodd" d="M22.2318 0.979004C26.2527 1.02489 29.8853 2.01311 33.1294 3.94368C36.3348 5.8357 39.0012 8.51843 40.8736 11.7353C42.7925 14.999 43.7747 18.6535 43.8205 22.6989C43.7065 28.234 41.9607 32.9615 38.583 36.8815C35.2053 40.8014 30.8793 43.2265 26.4011 44.1562V28.6375H30.6349L31.5924 22.539H25.1814V18.5446C25.1458 17.7166 25.4077 16.9031 25.9197 16.2513C26.4324 15.5978 27.3352 15.2543 28.6282 15.2208H32.4996V9.87867C32.444 9.8608 31.917 9.79013 30.9183 9.66665C29.7858 9.53414 28.6469 9.46337 27.5067 9.45463C24.926 9.46654 22.885 10.1945 21.3837 11.6385C19.8824 13.0822 19.1155 15.1708 19.083 17.9044V22.539H14.2042V28.6375H19.083V44.1562C13.5843 43.2265 9.2583 40.8014 5.88061 36.8815C2.50293 32.9615 0.757191 28.234 0.643219 22.6989C0.688818 18.6533 1.67107 14.9988 3.58997 11.7353C5.46245 8.51844 8.12889 5.83571 11.3343 3.94368C14.5783 2.01348 18.2108 1.02526 22.2318 0.979004Z" fill="#FE83C6"/>
</svg>
