<svg width="44" height="44" viewBox="0 0 44 44" fill="none" xmlns="http://www.w3.org/2000/svg">
<path fill-rule="evenodd" clip-rule="evenodd" d="M22.1212 16.7288C25.1374 16.7288 27.5823 19.136 27.5823 22.1055C27.5823 25.0743 25.1373 27.4816 22.1212 27.4816C19.1051 27.4816 16.6601 25.0743 16.6601 22.1055C16.6601 19.136 19.1051 16.7288 22.1212 16.7288ZM22.1212 14.5789C17.8987 14.5789 14.4756 17.9485 14.4756 22.1055C14.4756 26.2619 17.8987 29.6321 22.1212 29.6321C26.3438 29.6321 29.7668 26.2619 29.7668 22.1055C29.7668 17.9485 26.3438 14.5789 22.1212 14.5789ZM30.0029 12.7696C29.579 12.7762 29.1665 12.908 28.8173 13.1483C28.468 13.3887 28.1976 13.7269 28.04 14.1204C27.8823 14.514 27.8445 14.9454 27.9313 15.3603C28.0181 15.7753 28.2256 16.1554 28.5277 16.4528C28.8298 16.7502 29.2131 16.9518 29.6294 17.032C30.0457 17.1123 30.4764 17.0677 30.8674 16.904C31.2585 16.7402 31.5924 16.4645 31.8273 16.1115C32.0621 15.7586 32.1874 15.3441 32.1874 14.9201C32.1828 14.3453 31.9501 13.7958 31.5405 13.3925C31.1308 12.9892 30.5778 12.7651 30.0029 12.7696ZM16.7844 10.429H27.458C30.9304 10.429 33.7453 13.2001 33.7453 16.618V27.5923C33.7453 31.0108 30.9304 33.7814 27.458 33.7814H16.7844C13.312 33.7814 10.4971 31.0108 10.4971 27.5923V16.618C10.4971 13.2001 13.312 10.429 16.7844 10.429ZM15.7777 8.28859C11.6504 8.28859 8.30447 11.5826 8.30447 15.6455V28.5649C8.30447 32.6284 11.6503 35.9218 15.7777 35.9218H28.4648C32.5921 35.9218 35.9379 32.6284 35.9379 28.5649V15.6455C35.9379 11.5826 32.5921 8.28859 28.4648 8.28859H15.7777ZM22.1212 0.516602C34.0443 0.516602 43.7098 10.1818 43.7098 22.1055C43.7098 34.0285 34.0443 43.6938 22.1212 43.6938C10.1981 43.6938 0.532593 34.0285 0.532593 22.1055C0.532593 10.1819 10.1981 0.516602 22.1212 0.516602Z" fill="#FE83C6"/>
</svg>
