<svg width="849" height="645" viewBox="0 0 849 645" fill="none" xmlns="http://www.w3.org/2000/svg">
<mask id="mask0_53_93" style="mask-type:alpha" maskUnits="userSpaceOnUse" x="0" y="0" width="849" height="645">
<rect width="849" height="645" fill="#323232"/>
</mask>
<g mask="url(#mask0_53_93)">
<rect width="18.9972" height="901.575" transform="matrix(0.736241 0.676719 -0.608106 0.793855 83.5861 -55)" fill="#FE83C6"/>
<rect width="18.9972" height="901.575" transform="matrix(0.736241 0.676719 -0.608106 0.793855 156.451 -55)" fill="#FE83C6"/>
<rect width="18.9972" height="901.575" transform="matrix(0.736241 0.676719 -0.608106 0.793855 229.317 -55)" fill="#FE83C6"/>
<rect width="18.9972" height="901.575" transform="matrix(0.736241 0.676719 -0.608106 0.793855 302.183 -55)" fill="#FE83C6"/>
<rect width="18.9972" height="901.575" transform="matrix(0.736241 0.676719 -0.608106 0.793855 375.048 -55)" fill="#FE83C6"/>
<rect width="18.9972" height="901.575" transform="matrix(0.736241 0.676719 -0.608106 0.793855 447.913 -55)" fill="#FE83C6"/>
<rect width="18.9972" height="901.575" transform="matrix(0.736241 0.676719 -0.608106 0.793855 520.779 -55)" fill="#FE83C6"/>
<rect width="18.9972" height="901.575" transform="matrix(0.736241 0.676719 -0.608106 0.793855 593.644 -55)" fill="#FE83C6"/>
<rect width="18.9972" height="901.575" transform="matrix(0.736241 0.676719 -0.608106 0.793855 666.509 -55)" fill="#FE83C6"/>
<rect width="18.9972" height="901.575" transform="matrix(0.736241 0.676719 -0.608106 0.793855 739.375 -55)" fill="#FE83C6"/>
<rect width="18.9972" height="901.575" transform="matrix(0.736241 0.676719 -0.608106 0.793855 812.24 -55)" fill="#FE83C6"/>
<rect width="18.9972" height="901.575" transform="matrix(0.736241 0.676719 -0.608106 0.793855 885.105 -55)" fill="#FE83C6"/>
<rect width="18.9972" height="901.575" transform="matrix(0.736241 0.676719 -0.608106 0.793855 957.971 -55)" fill="#FE83C6"/>
<rect width="18.9972" height="901.575" transform="matrix(0.736241 0.676719 -0.608106 0.793855 1030.84 -55)" fill="#FE83C6"/>
<rect width="18.9972" height="901.575" transform="matrix(0.736241 0.676719 -0.608106 0.793855 1103.7 -55)" fill="#FE83C6"/>
<rect width="18.9972" height="901.575" transform="matrix(0.736241 0.676719 -0.608106 0.793855 1176.57 -55)" fill="#FE83C6"/>
<rect width="18.9972" height="901.575" transform="matrix(0.736241 0.676719 -0.608106 0.793855 1249.43 -55)" fill="#FE83C6"/>
<rect width="18.9972" height="901.575" transform="matrix(0.736241 0.676719 -0.608106 0.793855 1322.3 -55)" fill="#FE83C6"/>
<rect width="18.9972" height="901.575" transform="matrix(0.736241 0.676719 -0.608106 0.793855 1395.16 -55)" fill="#FE83C6"/>
</g>
</svg>
