<svg width="1440" height="645" viewBox="0 0 1440 645" fill="none" xmlns="http://www.w3.org/2000/svg">
<mask id="mask0_190_1434" style="mask-type:alpha" maskUnits="userSpaceOnUse" x="0" y="0" width="1440" height="645">
<rect width="1440" height="645" fill="#323232"/>
</mask>
<g mask="url(#mask0_190_1434)">
<rect width="26.9821" height="1173.44" transform="matrix(0.879199 0.476454 -0.792454 0.609932 141.771 -55)" fill="#FE83C6"/>
<rect width="26.9821" height="1173.44" transform="matrix(0.879199 0.476454 -0.792454 0.609932 265.359 -55)" fill="#FE83C6"/>
<rect width="26.9821" height="1173.44" transform="matrix(0.879199 0.476454 -0.792454 0.609932 388.948 -55)" fill="#FE83C6"/>
<rect width="26.9821" height="1173.44" transform="matrix(0.879199 0.476454 -0.792454 0.609932 512.536 -55)" fill="#FE83C6"/>
<rect width="26.9821" height="1173.44" transform="matrix(0.879199 0.476454 -0.792454 0.609932 636.124 -55)" fill="#FE83C6"/>
<rect width="26.9821" height="1173.44" transform="matrix(0.879199 0.476454 -0.792454 0.609932 759.711 -55)" fill="#FE83C6"/>
<rect width="26.9821" height="1173.44" transform="matrix(0.879199 0.476454 -0.792454 0.609932 883.3 -55)" fill="#FE83C6"/>
<rect width="26.9821" height="1173.44" transform="matrix(0.879199 0.476454 -0.792454 0.609932 1006.89 -55)" fill="#FE83C6"/>
<rect width="26.9821" height="1173.44" transform="matrix(0.879199 0.476454 -0.792454 0.609932 1130.48 -55)" fill="#FE83C6"/>
<rect width="26.9821" height="1173.44" transform="matrix(0.879199 0.476454 -0.792454 0.609932 1254.06 -55)" fill="#FE83C6"/>
<rect width="26.9821" height="1173.44" transform="matrix(0.879199 0.476454 -0.792454 0.609932 1377.65 -55)" fill="#FE83C6"/>
<rect width="26.9821" height="1173.44" transform="matrix(0.879199 0.476454 -0.792454 0.609932 1501.24 -55)" fill="#FE83C6"/>
<rect width="26.9821" height="1173.44" transform="matrix(0.879199 0.476454 -0.792454 0.609932 1624.83 -55)" fill="#FE83C6"/>
<rect width="26.9821" height="1173.44" transform="matrix(0.879199 0.476454 -0.792454 0.609932 1748.41 -55)" fill="#FE83C6"/>
<rect width="26.9821" height="1173.44" transform="matrix(0.879199 0.476454 -0.792454 0.609932 1872 -55)" fill="#FE83C6"/>
<rect width="26.9821" height="1173.44" transform="matrix(0.879199 0.476454 -0.792454 0.609932 1995.59 -55)" fill="#FE83C6"/>
<rect width="26.9821" height="1173.44" transform="matrix(0.879199 0.476454 -0.792454 0.609932 2119.18 -55)" fill="#FE83C6"/>
<rect width="26.9821" height="1173.44" transform="matrix(0.879199 0.476454 -0.792454 0.609932 2242.77 -55)" fill="#FE83C6"/>
<rect width="26.9821" height="1173.44" transform="matrix(0.879199 0.476454 -0.792454 0.609932 2366.35 -55)" fill="#FE83C6"/>
</g>
</svg>
