<svg width="46" height="45" viewBox="0 0 46 45" fill="none" xmlns="http://www.w3.org/2000/svg">
<path d="M23.0304 0.302734C18.6192 0.302734 14.3072 1.61078 10.6394 4.06147C6.97173 6.51216 4.11309 9.99542 2.42502 14.0708C0.736958 18.1461 0.295284 22.6305 1.15585 26.9569C2.01642 31.2832 4.14058 35.2573 7.25972 38.3764C10.3789 41.4955 14.3529 43.6197 18.6792 44.4803C23.0056 45.3408 27.49 44.8991 31.5654 43.2111C35.6407 41.523 39.124 38.6644 41.5747 34.9967C44.0254 31.329 45.3334 27.0169 45.3334 22.6058C45.3334 16.6906 42.9836 11.0178 38.801 6.83514C34.6184 2.65251 28.9455 0.302734 23.0304 0.302734V0.302734ZM33.0843 20.1202C31.0947 20.3402 29.3897 19.5538 27.6847 18.5501C27.6847 18.7145 27.7345 23.809 27.6494 26.2388C27.5643 28.7362 26.6722 30.9342 24.7148 32.5746C20.5653 36.058 14.6755 34.1769 13.2698 28.8506C12.5068 25.9483 13.1701 23.3335 15.4473 21.2646C16.7297 20.0908 18.3115 19.5684 20.0077 19.3513C20.3716 19.3043 20.7384 19.2838 21.1317 19.2486V23.1927C20.6328 23.3159 20.128 23.4245 19.6321 23.5713C19.288 23.6706 18.9524 23.7972 18.6284 23.9498C18.1765 24.1531 17.7774 24.4577 17.4621 24.84C17.1467 25.2223 16.9237 25.6721 16.8102 26.1545C16.6967 26.6369 16.6958 27.139 16.8075 27.6218C16.9193 28.1046 17.1407 28.5552 17.4546 28.9387C17.8321 29.4606 18.3455 29.869 18.939 30.1195C19.5325 30.3699 20.1833 30.4528 20.8206 30.359C22.103 30.2035 22.9071 29.3965 23.3825 28.2373C23.7112 27.3199 23.8539 26.3462 23.8022 25.3731C23.7846 20.5838 23.7846 15.7975 23.7757 11.0082C23.7798 10.9589 23.7867 10.9099 23.7963 10.8615H27.626C28.0544 14.0661 29.6802 16.0968 33.0843 16.3844V20.1202Z" fill="#FE83C6"/>
</svg>
