<svg width="46" height="45" viewBox="0 0 46 45" fill="none" xmlns="http://www.w3.org/2000/svg">
<path d="M23.2121 0.303223C10.8964 0.303223 0.909119 10.2905 0.909119 22.6063C0.909119 34.922 10.8964 44.9093 23.2121 44.9093C35.5279 44.9093 45.5152 34.922 45.5152 22.6063C45.5152 10.2905 35.5279 0.303223 23.2121 0.303223ZM33.3955 17.6928C33.4053 17.9123 33.4101 18.1328 33.4101 18.3543C33.4101 25.1188 28.2611 32.9192 18.8449 32.9196H18.8452H18.8449C15.9539 32.9196 13.2637 32.0722 10.9982 30.62C11.3987 30.6673 11.8064 30.6908 12.2192 30.6908C14.6178 30.6908 16.8251 29.8727 18.5774 28.4995C16.3364 28.458 14.4469 26.978 13.7949 24.9439C14.107 25.0038 14.4279 25.0365 14.757 25.0365C15.2242 25.0365 15.6768 24.9735 16.107 24.8561C13.7646 24.3871 12.0001 22.317 12.0001 19.8381C12.0001 19.815 12.0001 19.7942 12.0007 19.7728C12.6906 20.1563 13.4794 20.387 14.3193 20.4129C12.9448 19.4958 12.0412 17.9279 12.0412 16.1518C12.0412 15.2139 12.2948 14.3352 12.7345 13.5787C15.2589 16.6762 19.0317 18.7134 23.2863 18.9274C23.1985 18.5524 23.1533 18.1617 23.1533 17.7601C23.1533 14.9341 25.446 12.6414 28.273 12.6414C29.7456 12.6414 31.0755 13.2639 32.0097 14.259C33.176 14.0289 34.2711 13.6028 35.2604 13.0165C34.8775 14.2113 34.0662 15.2139 33.0092 15.8479C34.0448 15.724 35.0317 15.4494 35.9489 15.0417C35.2638 16.0684 34.395 16.9703 33.3955 17.6928Z" fill="#FE83C6"/>
</svg>
